<svg width="83" height="117" viewBox="0 0 83 117" fill="none" xmlns="http://www.w3.org/2000/svg">
<g style="mix-blend-mode:multiply">
<path d="M30.2134 40.2439C31.9409 40.6414 34.7929 34.1291 41.1401 31.2616C47.4872 28.394 50.568 29.6492 50.568 29.6492C46.7706 30.7509 41.5735 36.5977 42.0902 39.2285C42.6069 41.8578 44.8383 38.8712 46.4475 36.8984C47.7511 35.3009 50.5264 33.4889 56.1601 32.1207V62.6543C56.1601 66.4226 54.5189 69.832 51.8652 72.3021C49.1763 74.8063 45.4445 76.3429 41.3288 76.2982C33.2685 76.2118 26.8398 69.9824 26.8398 62.4801C26.8398 57.7187 30.7332 53.7449 35.8263 53.2953C38.1696 53.0883 40.3531 52.6372 42.2294 51.7945C42.874 51.5057 43.4818 51.1677 44.0481 50.7791C51.6733 45.5398 54.5141 36.4533 52.7882 36.0542C51.0606 35.6552 48.207 42.169 41.8599 45.0351C35.5143 47.9041 32.432 46.649 32.432 46.649C36.2326 45.5443 41.428 39.7005 40.9113 37.0696C40.3947 34.4403 38.1616 37.4255 36.5541 39.3997C35.2504 40.9973 32.4736 42.8092 26.8398 44.1775V13.6454C26.8398 6.07303 33.4637 -0.0566155 41.6119 -3.87197e-05C49.6946 0.056538 56.1585 6.29338 56.1585 13.8166C56.1585 18.5795 52.2635 22.5532 47.1705 23.0029C44.8287 23.2098 42.6437 23.661 40.769 24.5037C40.1243 24.7925 39.5165 25.1305 38.9502 25.5191C31.3267 30.7598 28.4858 39.8464 30.2117 40.2454L30.2134 40.2439Z" fill="#BDCBFF"/>
</g>
<path d="M82.4857 38.1491C82.4857 45.6857 75.9211 51.7945 67.8256 51.7945H42.2276C42.8722 51.5057 43.48 51.1677 44.0463 50.7791C51.6715 45.5398 54.5123 36.4533 52.7864 36.0543C51.0588 35.6553 48.2052 42.169 41.8581 45.0351C35.5125 47.9041 32.4302 46.649 32.4302 46.649C36.2308 45.5443 41.4262 39.7005 40.9095 37.0697C40.3929 34.4404 38.1598 37.4255 36.5523 39.3998C35.2486 40.9973 32.4718 42.8092 26.838 44.1775C25.52 44.4961 24.0436 44.7924 22.3944 45.0544C15.07 46.2232 13.0737 47.1061 10.7639 51.1647C8.4877 50.4977 6.45144 49.329 4.80547 47.7969C2.15337 45.3269 0.512207 41.9144 0.512207 38.1476C0.512207 30.6125 7.07527 24.5022 15.1723 24.5022H40.7688C40.1241 24.791 39.5163 25.129 38.95 25.5176C31.3265 30.7584 28.4856 39.8449 30.2115 40.2439C31.9391 40.6415 34.7911 34.1292 41.1383 31.2616C47.4854 28.3941 50.5662 29.6492 50.5662 29.6492C46.7688 30.751 41.5717 36.5977 42.0884 39.2285C42.6051 41.8579 44.8365 38.8712 46.4457 36.8985C47.7493 35.3009 50.5246 33.489 56.1583 32.1207C57.4763 31.8006 58.9528 31.5043 60.6019 31.2408C67.928 30.0735 69.9226 29.1921 72.234 25.1305C74.5086 25.7975 76.5449 26.9678 78.1909 28.4998C80.8446 30.9683 82.4857 34.3808 82.4857 38.1476V38.1491Z" fill="#194AF5"/>
<path d="M9.9375 112H4.75781V96H10.1016C11.6693 96 13.0156 96.3203 14.1406 96.9609C15.2656 97.5964 16.1276 98.5104 16.7266 99.7031C17.3307 100.891 17.6328 102.315 17.6328 103.977C17.6328 105.643 17.3281 107.076 16.7188 108.273C16.1146 109.471 15.2396 110.393 14.0938 111.039C12.9479 111.68 11.5625 112 9.9375 112ZM7.17188 109.891H9.80469C11.0234 109.891 12.0365 109.661 12.8438 109.203C13.651 108.74 14.2552 108.07 14.6563 107.195C15.0573 106.315 15.2578 105.242 15.2578 103.977C15.2578 102.721 15.0573 101.656 14.6563 100.781C14.2604 99.9062 13.6693 99.2422 12.8828 98.7891C12.0964 98.3359 11.1198 98.1094 9.95313 98.1094H7.17188V109.891ZM20.6348 112V96H26.3379C27.5775 96 28.6061 96.2135 29.4238 96.6406C30.2467 97.0677 30.8613 97.6589 31.2676 98.4141C31.6738 99.1641 31.877 100.031 31.877 101.016C31.877 101.995 31.6712 102.857 31.2598 103.602C30.8535 104.341 30.2389 104.917 29.416 105.328C28.5983 105.74 27.5697 105.945 26.3301 105.945H22.0098V103.867H26.1113C26.8926 103.867 27.528 103.755 28.0176 103.531C28.5124 103.307 28.8743 102.982 29.1035 102.555C29.3327 102.128 29.4473 101.615 29.4473 101.016C29.4473 100.411 29.3301 99.888 29.0957 99.4453C28.8665 99.0026 28.5046 98.6641 28.0098 98.4297C27.5202 98.1901 26.877 98.0703 26.0801 98.0703H23.0488V112H20.6348ZM28.5332 104.781L32.4863 112H29.7363L25.8613 104.781H28.5332ZM48.1035 101.203H45.666C45.5723 100.682 45.3978 100.224 45.1426 99.8281C44.8874 99.4323 44.5749 99.0964 44.2051 98.8203C43.8353 98.5443 43.4212 98.3359 42.9629 98.1953C42.5098 98.0547 42.028 97.9844 41.5176 97.9844C40.5957 97.9844 39.7702 98.2161 39.041 98.6797C38.3171 99.1432 37.7441 99.8229 37.3223 100.719C36.9056 101.615 36.6973 102.708 36.6973 104C36.6973 105.302 36.9056 106.401 37.3223 107.297C37.7441 108.193 38.3197 108.87 39.0488 109.328C39.778 109.786 40.5983 110.016 41.5098 110.016C42.015 110.016 42.4941 109.948 42.9473 109.812C43.4056 109.672 43.8197 109.466 44.1895 109.195C44.5592 108.924 44.8717 108.594 45.127 108.203C45.3874 107.807 45.5671 107.354 45.666 106.844L48.1035 106.852C47.9733 107.638 47.7207 108.362 47.3457 109.023C46.9759 109.68 46.4993 110.247 45.916 110.727C45.3379 111.201 44.6764 111.568 43.9316 111.828C43.1868 112.089 42.3743 112.219 41.4941 112.219C40.1087 112.219 38.8743 111.891 37.791 111.234C36.7077 110.573 35.8535 109.628 35.2285 108.398C34.6087 107.169 34.2988 105.703 34.2988 104C34.2988 102.292 34.6113 100.826 35.2363 99.6016C35.8613 98.3724 36.7155 97.4297 37.7988 96.7734C38.8822 96.112 40.1139 95.7812 41.4941 95.7812C42.3431 95.7812 43.1348 95.9036 43.8691 96.1484C44.6087 96.388 45.2728 96.7422 45.8613 97.2109C46.4499 97.6745 46.9368 98.2422 47.3223 98.9141C47.7077 99.5807 47.9681 100.344 48.1035 101.203ZM50.9922 112V96H60.9141V98.0781H53.4063V102.953H60.2031V105.023H53.4063V112H50.9922ZM77.7813 104C77.7813 105.708 77.4688 107.177 76.8438 108.406C76.2188 109.63 75.362 110.573 74.2734 111.234C73.1901 111.891 71.9583 112.219 70.5781 112.219C69.1927 112.219 67.9557 111.891 66.8672 111.234C65.7839 110.573 64.9297 109.628 64.3047 108.398C63.6797 107.169 63.3672 105.703 63.3672 104C63.3672 102.292 63.6797 100.826 64.3047 99.6016C64.9297 98.3724 65.7839 97.4297 66.8672 96.7734C67.9557 96.112 69.1927 95.7812 70.5781 95.7812C71.9583 95.7812 73.1901 96.112 74.2734 96.7734C75.362 97.4297 76.2188 98.3724 76.8438 99.6016C77.4688 100.826 77.7813 102.292 77.7813 104ZM75.3906 104C75.3906 102.698 75.1797 101.602 74.7578 100.711C74.3411 99.8151 73.7682 99.138 73.0391 98.6797C72.3151 98.2161 71.4948 97.9844 70.5781 97.9844C69.6563 97.9844 68.8333 98.2161 68.1094 98.6797C67.3854 99.138 66.8125 99.8151 66.3906 100.711C65.974 101.602 65.7656 102.698 65.7656 104C65.7656 105.302 65.974 106.401 66.3906 107.297C66.8125 108.187 67.3854 108.865 68.1094 109.328C68.8333 109.786 69.6563 110.016 70.5781 110.016C71.4948 110.016 72.3151 109.786 73.0391 109.328C73.7682 108.865 74.3411 108.187 74.7578 107.297C75.1797 106.401 75.3906 105.302 75.3906 104Z" fill="#232526"/>
</svg>
