<svg width="176" height="79" viewBox="0 0 176 79" fill="none" xmlns="http://www.w3.org/2000/svg">
<g style="mix-blend-mode:multiply">
<path d="M26.3867 41.1721C27.9215 41.5788 30.4553 34.9164 36.0942 31.9827C41.7331 29.0491 44.4701 30.3331 44.4701 30.3331C41.0964 31.4603 36.4793 37.4419 36.9383 40.1333C37.3973 42.8233 39.3797 39.7678 40.8094 37.7495C41.9675 36.1152 44.4331 34.2614 49.4382 32.8616V64.0991C49.4382 67.9543 47.9802 71.4424 45.6226 73.9694C43.2337 76.5314 39.9183 78.1033 36.2619 78.0576C29.101 77.9693 23.3896 71.5963 23.3896 63.9209C23.3896 59.0498 26.8486 54.9844 31.3733 54.5244C33.4552 54.3127 35.395 53.8511 37.0619 52.989C37.6346 52.6935 38.1747 52.3478 38.6777 51.9502C45.4521 46.5901 47.9759 37.2941 46.4426 36.8859C44.9078 36.4777 42.3726 43.1416 36.7337 46.0738C31.0962 49.0089 28.3578 47.7249 28.3578 47.7249C31.7343 46.5947 36.35 40.6162 35.891 37.9247C35.432 35.2348 33.4481 38.2887 32.0199 40.3085C30.8617 41.9429 28.3947 43.7966 23.3896 45.1964V13.9604C23.3896 6.21348 29.2744 -0.0574836 36.5134 0.000397484C43.6942 0.0582786 49.4368 6.43891 49.4368 14.1356C49.4368 19.0082 45.9764 23.0736 41.4517 23.5336C39.3712 23.7454 37.43 24.2069 35.7645 25.069C35.1918 25.3645 34.6518 25.7103 34.1487 26.1078C27.3758 31.4694 24.8519 40.7654 26.3853 41.1737L26.3867 41.1721Z" fill="#BDCBFF"/>
</g>
<path d="M72.8266 39.0318C72.8266 46.7422 66.9944 52.9918 59.8023 52.9918H37.0606C37.6333 52.6964 38.1733 52.3506 38.6764 51.953C45.4507 46.5929 47.9745 37.2969 46.4412 36.8887C44.9064 36.4805 42.3712 43.1444 36.7323 46.0766C31.0949 49.0118 28.3564 47.7277 28.3564 47.7277C31.7329 46.5975 36.3486 40.619 35.8896 37.9275C35.4306 35.2376 33.4468 38.2916 32.0186 40.3113C30.8604 41.9457 28.3934 43.7994 23.3883 45.1992C22.2173 45.5252 20.9056 45.8283 19.4405 46.0964C12.9333 47.2921 11.1598 48.1953 9.10776 52.3475C7.08555 51.6652 5.2765 50.4695 3.8142 48.9021C1.45804 46.3751 0 42.884 0 39.0303C0 31.3215 5.83073 25.0703 13.0243 25.0703H35.7645C35.1918 25.3658 34.6518 25.7116 34.1488 26.1091C27.3759 31.4707 24.852 40.7668 26.3854 41.175C27.9201 41.5817 30.4539 34.9192 36.0928 31.9856C41.7317 29.0519 44.4687 30.336 44.4687 30.336C41.0951 31.4631 36.4779 37.4447 36.9369 40.1362C37.396 42.8261 39.3784 39.7706 40.808 37.7524C41.9662 36.118 44.4318 34.2643 49.4368 32.8645C50.6078 32.537 51.9195 32.2339 53.3846 31.9643C59.8932 30.7701 61.6653 29.8683 63.7188 25.7131C65.7396 26.3955 67.5486 27.5927 69.0109 29.1601C71.3685 31.6855 72.8266 35.1767 72.8266 39.0303V39.0318Z" fill="#194AF5"/>
<path d="M95.9375 45H90.7578V29H96.1016C97.6693 29 99.0156 29.3203 100.141 29.9609C101.266 30.5964 102.128 31.5104 102.727 32.7031C103.331 33.8906 103.633 35.3151 103.633 36.9766C103.633 38.6432 103.328 40.0755 102.719 41.2734C102.115 42.4714 101.24 43.3932 100.094 44.0391C98.9479 44.6797 97.5625 45 95.9375 45ZM93.1719 42.8906H95.8047C97.0234 42.8906 98.0365 42.6615 98.8438 42.2031C99.651 41.7396 100.255 41.0703 100.656 40.1953C101.057 39.3151 101.258 38.2422 101.258 36.9766C101.258 35.7214 101.057 34.6562 100.656 33.7812C100.26 32.9062 99.6693 32.2422 98.8828 31.7891C98.0964 31.3359 97.1198 31.1094 95.9531 31.1094H93.1719V42.8906ZM106.635 45V29H112.338C113.577 29 114.606 29.2135 115.424 29.6406C116.247 30.0677 116.861 30.6589 117.268 31.4141C117.674 32.1641 117.877 33.0312 117.877 34.0156C117.877 34.9948 117.671 35.8568 117.26 36.6016C116.854 37.3411 116.239 37.9167 115.416 38.3281C114.598 38.7396 113.57 38.9453 112.33 38.9453H108.01V36.8672H112.111C112.893 36.8672 113.528 36.7552 114.018 36.5312C114.512 36.3073 114.874 35.9818 115.104 35.5547C115.333 35.1276 115.447 34.6146 115.447 34.0156C115.447 33.4115 115.33 32.888 115.096 32.4453C114.867 32.0026 114.505 31.6641 114.01 31.4297C113.52 31.1901 112.877 31.0703 112.08 31.0703H109.049V45H106.635ZM114.533 37.7812L118.486 45H115.736L111.861 37.7812H114.533ZM134.104 34.2031H131.666C131.572 33.6823 131.398 33.224 131.143 32.8281C130.887 32.4323 130.575 32.0964 130.205 31.8203C129.835 31.5443 129.421 31.3359 128.963 31.1953C128.51 31.0547 128.028 30.9844 127.518 30.9844C126.596 30.9844 125.77 31.2161 125.041 31.6797C124.317 32.1432 123.744 32.8229 123.322 33.7187C122.906 34.6146 122.697 35.7083 122.697 37C122.697 38.3021 122.906 39.401 123.322 40.2969C123.744 41.1927 124.32 41.8698 125.049 42.3281C125.778 42.7865 126.598 43.0156 127.51 43.0156C128.015 43.0156 128.494 42.9479 128.947 42.8125C129.406 42.6719 129.82 42.4661 130.189 42.1953C130.559 41.9245 130.872 41.5937 131.127 41.2031C131.387 40.8073 131.567 40.3542 131.666 39.8438L134.104 39.8516C133.973 40.638 133.721 41.362 133.346 42.0234C132.976 42.6797 132.499 43.2474 131.916 43.7266C131.338 44.2005 130.676 44.5677 129.932 44.8281C129.187 45.0885 128.374 45.2187 127.494 45.2187C126.109 45.2187 124.874 44.8906 123.791 44.2344C122.708 43.5729 121.854 42.6276 121.229 41.3984C120.609 40.1693 120.299 38.7031 120.299 37C120.299 35.2917 120.611 33.8255 121.236 32.6016C121.861 31.3724 122.715 30.4297 123.799 29.7734C124.882 29.112 126.114 28.7812 127.494 28.7812C128.343 28.7812 129.135 28.9036 129.869 29.1484C130.609 29.388 131.273 29.7422 131.861 30.2109C132.45 30.6745 132.937 31.2422 133.322 31.9141C133.708 32.5807 133.968 33.3437 134.104 34.2031ZM136.992 45V29H146.914V31.0781H139.406V35.9531H146.203V38.0234H139.406V45H136.992ZM163.781 37C163.781 38.7083 163.469 40.1771 162.844 41.4062C162.219 42.6302 161.362 43.5729 160.273 44.2344C159.19 44.8906 157.958 45.2187 156.578 45.2187C155.193 45.2187 153.956 44.8906 152.867 44.2344C151.784 43.5729 150.93 42.6276 150.305 41.3984C149.68 40.1693 149.367 38.7031 149.367 37C149.367 35.2917 149.68 33.8255 150.305 32.6016C150.93 31.3724 151.784 30.4297 152.867 29.7734C153.956 29.112 155.193 28.7812 156.578 28.7812C157.958 28.7812 159.19 29.112 160.273 29.7734C161.362 30.4297 162.219 31.3724 162.844 32.6016C163.469 33.8255 163.781 35.2917 163.781 37ZM161.391 37C161.391 35.6979 161.18 34.6016 160.758 33.7109C160.341 32.8151 159.768 32.138 159.039 31.6797C158.315 31.2161 157.495 30.9844 156.578 30.9844C155.656 30.9844 154.833 31.2161 154.109 31.6797C153.385 32.138 152.813 32.8151 152.391 33.7109C151.974 34.6016 151.766 35.6979 151.766 37C151.766 38.3021 151.974 39.401 152.391 40.2969C152.813 41.1875 153.385 41.8646 154.109 42.3281C154.833 42.7865 155.656 43.0156 156.578 43.0156C157.495 43.0156 158.315 42.7865 159.039 42.3281C159.768 41.8646 160.341 41.1875 160.758 40.2969C161.18 39.401 161.391 38.3021 161.391 37Z" fill="#232526"/>
</svg>
