<svg width="44" height="36" viewBox="0 0 44 36" fill="none" xmlns="http://www.w3.org/2000/svg">
<path d="M40.3117 0H2.82559C1.26511 0 0 1.26511 0 2.82559V26.5605C0 28.121 1.26511 29.3861 2.82559 29.3861H15.2676L19.4063 34.3067C19.9432 34.945 20.7346 35.3135 21.5688 35.3135C22.4029 35.3135 23.1943 34.9451 23.7312 34.3068L27.8699 29.3862H40.3117C41.8723 29.3862 43.1373 28.1211 43.1373 26.5606V2.82568C43.1373 1.26502 41.8723 0 40.3117 0ZM8.0437 8.04973H20.9472C21.7275 8.04973 22.36 8.68228 22.36 9.46252C22.36 10.2428 21.7275 10.8753 20.9472 10.8753H8.0437C7.26346 10.8753 6.6309 10.2428 6.6309 9.46252C6.6309 8.68228 7.26346 8.04973 8.0437 8.04973ZM35.0373 19.5405H8.10002C7.31978 19.5405 6.68723 18.9079 6.68723 18.1277C6.68723 17.3474 7.31978 16.7149 8.10002 16.7149H35.0373C35.8175 16.7149 36.4501 17.3474 36.4501 18.1277C36.4501 18.9079 35.8175 19.5405 35.0373 19.5405Z" fill="white"/>
</svg>
