<svg width="49" height="49" viewBox="0 0 49 49" fill="none" xmlns="http://www.w3.org/2000/svg">
<path d="M18.6391 41.0564C18.5751 41.0221 18.5129 40.9848 18.4479 40.9534C17.9526 40.7113 17.6738 40.1741 17.7736 39.6516C17.8838 39.0683 18.318 38.6683 18.8934 38.6634C20.1703 38.6526 21.4473 38.6585 22.7243 38.6576C22.8392 38.6576 22.9541 38.6576 23.0878 38.6576V35.4735C22.5736 35.3608 22.0491 35.2725 21.5396 35.1294C19.1966 34.4716 17.2952 33.1168 15.8497 31.0964C14.4936 29.2024 13.8221 27.0526 13.7873 24.69C13.7788 24.1058 14.0707 23.6636 14.5661 23.4862C15.0323 23.3195 15.5738 23.4646 15.8412 23.8989C15.9815 24.1273 16.071 24.4283 16.0813 24.7008C16.151 26.6056 16.6859 28.3348 17.8264 29.8367C19.1636 31.5983 20.8964 32.7051 23.0379 33.0002C26.3321 33.454 28.9915 32.2473 30.9551 29.4612C31.9599 28.0358 32.3874 26.3938 32.4336 24.6341C32.4543 23.845 33.0419 23.3323 33.768 23.4382C34.3368 23.5215 34.7408 24.0391 34.7314 24.69C34.6966 27.0644 34.0204 29.224 32.6492 31.1229C31.0445 33.3442 28.9162 34.7353 26.2982 35.3019C26.0091 35.3647 25.7162 35.4058 25.4205 35.4578V38.6585C25.5382 38.6585 25.6503 38.6585 25.7623 38.6585C26.997 38.6585 28.2316 38.6566 29.4662 38.6585C30.1687 38.6595 30.6245 39.0163 30.7451 39.6516C30.8543 40.229 30.5511 40.729 29.922 41.0103C29.905 41.0181 29.8937 41.0407 29.8796 41.0564H18.6391Z" fill="#545B74"/>
<path d="M30.3146 19.5803C30.3146 21.2613 30.3217 22.9413 30.3128 24.6223C30.2969 27.4996 28.734 29.8288 26.1851 30.7914C23.0159 31.9878 19.298 29.9308 18.4582 26.4875C18.3077 25.8701 18.2227 25.2172 18.2183 24.5802C18.1953 21.2295 18.1847 17.8788 18.2148 14.529C18.2396 11.7836 19.4272 9.75836 21.7822 8.56663C25.0638 6.90531 29.1915 8.96325 30.0774 12.6937C30.2217 13.3017 30.2925 13.9434 30.3048 14.5711C30.3358 16.2409 30.3155 17.9106 30.3155 19.5803H30.3146Z" fill="#545B74"/>
<circle cx="24.2588" cy="24.4404" r="22.0976" stroke="#545B74" stroke-width="3.67785"/>
</svg>
