<svg width="49" height="49" viewBox="0 0 49 49" fill="none" xmlns="http://www.w3.org/2000/svg">
<path d="M36.4987 17.1096V32.59C36.4359 32.7007 36.3875 32.8222 36.3089 32.9201C35.9518 33.3625 35.3716 33.3686 34.9377 32.9328C33.1792 31.1672 31.4236 29.3997 29.6663 27.6329C29.607 27.5733 29.543 27.5186 29.4451 27.4287C29.4451 27.9301 29.4523 28.3805 29.4433 28.8302C29.4324 29.3469 29.4481 29.869 29.3792 30.3789C29.1562 32.0333 27.5953 33.7193 25.3985 33.7065C22.2144 33.6877 19.0308 33.7096 15.8467 33.6926C15.3952 33.6901 14.9245 33.6281 14.4972 33.4865C12.8861 32.9535 11.8219 31.4681 11.7983 29.7632C11.7826 28.6558 11.7941 27.5478 11.7941 26.4398C11.7941 24.3131 11.7959 22.1865 11.7929 20.0592C11.7923 19.4532 11.8654 18.86 12.1361 18.3155C12.8982 16.7832 14.1225 15.956 15.8442 15.9518C19.0284 15.9432 22.212 15.9493 25.3961 15.9499C25.4844 15.9499 25.5732 15.953 25.6614 15.9578C27.6883 16.0672 29.2819 17.6183 29.4185 19.6562C29.4686 20.405 29.4384 21.1593 29.4445 21.9111C29.4451 21.995 29.4445 22.0795 29.4445 22.2163C29.5508 22.1154 29.6149 22.0582 29.6753 21.9975C31.417 20.2501 33.1568 18.5002 34.9039 16.7577C35.0417 16.6203 35.2175 16.4915 35.3994 16.4362C35.8744 16.2909 36.2612 16.545 36.4981 17.1102L36.4987 17.1096Z" fill="#545B74"/>
<circle cx="24.1445" cy="24.4404" r="22.0976" stroke="#545B74" stroke-width="3.67785"/>
</svg>
