<svg width="190" height="190" viewBox="0 0 190 190" fill="none" xmlns="http://www.w3.org/2000/svg">
<g filter="url(#filter0_d_338_6128)">
<circle cx="87" cy="87" r="55" fill="#3E999E"/>
</g>
<g clip-path="url(#clip0_338_6128)">
<g filter="url(#filter1_f_338_6128)">
<path d="M73.1866 108.557L74.1304 109.116C78.0943 111.469 82.6391 112.713 87.2741 112.715H87.2837C101.517 112.715 113.101 101.134 113.107 86.8995C113.11 80.0017 110.426 73.515 105.551 68.6357C103.159 66.2293 100.314 64.3211 97.1805 63.0216C94.0467 61.7221 90.6863 61.0571 87.2939 61.0651C73.0493 61.0651 61.4651 72.6452 61.46 86.8789C61.453 91.7391 62.8217 96.5023 65.4079 100.617L66.0223 101.594L63.413 111.119L73.1866 108.557ZM55.9531 118.499L60.3612 102.404C57.6426 97.6945 56.2124 92.3511 56.2141 86.8767C56.2213 69.7509 70.158 55.8184 87.2841 55.8184C95.5949 55.8226 103.396 59.0568 109.262 64.9277C115.129 70.7985 118.357 78.6023 118.354 86.9017C118.346 104.026 104.408 117.961 87.2837 117.961H87.2703C82.0707 117.959 76.9617 116.655 72.4235 114.18L55.9531 118.499Z" fill="#B3B3B3"/>
</g>
<path d="M55.6406 118.181L60.0487 102.086C57.3255 97.3648 55.895 92.0088 55.9016 86.5582C55.9088 69.4325 69.8455 55.5 86.9717 55.5C95.2825 55.5042 103.083 58.7384 108.95 64.6093C114.816 70.4802 118.044 78.2838 118.041 86.5832C118.034 103.708 104.095 117.643 86.9713 117.643H86.9577C81.7583 117.641 76.6493 116.336 72.111 113.862L55.6406 118.181Z" fill="white"/>
<path d="M86.9745 60.7462C72.73 60.7462 61.1457 72.3262 61.1407 86.5599C61.1336 91.4203 62.5023 96.1833 65.0885 100.298L65.7029 101.275L63.0937 110.801L72.8676 108.238L73.8114 108.797C77.7753 111.15 82.3203 112.394 86.9551 112.396H86.9649C101.199 112.396 112.783 100.815 112.788 86.5805C112.799 83.1879 112.137 79.8267 110.84 76.6917C109.542 73.5566 107.636 70.71 105.232 68.3167C102.84 65.9103 99.9953 64.0021 96.8615 62.7026C93.7275 61.4031 90.3671 60.7381 86.9745 60.7462Z" fill="url(#paint0_linear_338_6128)"/>
<path fill-rule="evenodd" clip-rule="evenodd" d="M79.2118 73.5741C78.63 72.2816 78.0176 72.2554 77.465 72.233L75.9768 72.2148C75.4592 72.2148 74.6179 72.4091 73.9068 73.1861C73.1957 73.9631 71.1895 75.8409 71.1895 79.6605C71.1895 83.4799 73.9714 87.1705 74.3591 87.6891C74.7467 88.2077 79.7296 96.2955 87.6206 99.4073C94.1782 101.993 95.5126 101.479 96.9364 101.35C98.3604 101.22 101.53 99.4719 102.176 97.6591C102.823 95.8461 102.823 94.2931 102.629 93.9683C102.435 93.6437 101.918 93.4507 101.141 93.0621C100.364 92.6737 96.5476 90.7957 95.836 90.5365C95.1244 90.2773 94.6072 90.1485 94.089 90.9255C93.571 91.7025 92.085 93.4503 91.6318 93.9683C91.1788 94.4865 90.7264 94.5515 89.9494 94.1635C89.1724 93.7753 86.6726 92.9553 83.7066 90.3105C81.3988 88.2529 79.841 85.7115 79.3876 84.9351C78.934 84.1585 79.3394 83.7379 79.7288 83.3511C80.0772 83.0031 80.5048 82.4445 80.8938 81.9913C81.2828 81.5383 81.4106 81.2143 81.669 80.6971C81.9276 80.1799 81.7988 79.7255 81.6044 79.3373C81.4102 78.9493 79.9018 75.1095 79.2118 73.5741Z" fill="white"/>
</g>
<defs>
<filter id="filter0_d_338_6128" x="0" y="0" width="190" height="190" filterUnits="userSpaceOnUse" color-interpolation-filters="sRGB">
<feFlood flood-opacity="0" result="BackgroundImageFix"/>
<feColorMatrix in="SourceAlpha" type="matrix" values="0 0 0 0 0 0 0 0 0 0 0 0 0 0 0 0 0 0 127 0" result="hardAlpha"/>
<feOffset dx="8" dy="8"/>
<feGaussianBlur stdDeviation="20"/>
<feComposite in2="hardAlpha" operator="out"/>
<feColorMatrix type="matrix" values="0 0 0 0 1 0 0 0 0 1 0 0 0 0 1 0 0 0 1 0"/>
<feBlend mode="normal" in2="BackgroundImageFix" result="effect1_dropShadow_338_6128"/>
<feBlend mode="normal" in="SourceGraphic" in2="effect1_dropShadow_338_6128" result="shape"/>
</filter>
<filter id="filter1_f_338_6128" x="55.7531" y="55.6184" width="62.8004" height="63.0807" filterUnits="userSpaceOnUse" color-interpolation-filters="sRGB">
<feFlood flood-opacity="0" result="BackgroundImageFix"/>
<feBlend mode="normal" in="SourceGraphic" in2="BackgroundImageFix" result="shape"/>
<feGaussianBlur stdDeviation="0.1" result="effect1_foregroundBlur_338_6128"/>
</filter>
<linearGradient id="paint0_linear_338_6128" x1="86.4387" y1="63.8457" x2="86.7005" y2="107.984" gradientUnits="userSpaceOnUse">
<stop stop-color="#57D163"/>
<stop offset="1" stop-color="#23B33A"/>
</linearGradient>
<clipPath id="clip0_338_6128">
<rect width="64" height="64" fill="white" transform="translate(55 55)"/>
</clipPath>
</defs>
</svg>
