<svg width="531" height="379" viewBox="0 0 531 379" fill="none" xmlns="http://www.w3.org/2000/svg">
<g clip-path="url(#clip0_5946_62583)" filter="url(#filter0_d_5946_62583)">
<path d="M20.482 67.2031C15.4933 67.2031 11.4492 71.2473 11.4492 76.236V361.873C11.4492 366.862 15.4934 370.906 20.4821 370.906H517.526C522.514 370.906 526.559 366.862 526.559 361.873V76.236C526.559 71.2473 522.514 67.2031 517.526 67.2031H20.482ZM486.409 301.236C486.409 306.225 482.364 310.269 477.376 310.269H218.379C213.39 310.269 209.346 306.225 209.346 301.236V205.555C209.346 200.566 213.39 196.522 218.379 196.522H477.376C482.364 196.522 486.409 200.566 486.409 205.555V301.236ZM486.409 162.258C486.409 167.246 482.364 171.291 477.376 171.291H218.379C213.39 171.291 209.346 167.246 209.346 162.258V157.739C209.346 152.75 213.39 148.706 218.379 148.706H477.376C482.364 148.706 486.409 152.75 486.409 157.739V162.258ZM486.409 114.442C486.409 119.431 482.364 123.475 477.376 123.475H218.379C213.39 123.475 209.346 119.431 209.346 114.442V109.923C209.346 104.935 213.39 100.891 218.379 100.891H477.376C482.364 100.891 486.409 104.935 486.409 109.923V114.442Z" fill="#CCE9FF"/>
<path d="M11.4492 32.9844H526.559V75.3344H11.4492V32.9844Z" fill="#0B4870"/>
<path d="M395.213 325.395H486.41V347.979H395.213V325.395Z" fill="#FFBE55"/>
<path d="M157.303 70.8462C158.85 77.9618 160.706 89.0993 160.534 102.815C160.328 119.384 157.372 123.543 158.541 133.443C160.431 149.668 170.503 156.612 183.325 173.627C191.3 184.215 209.072 207.762 211.581 228.937C215.431 261.524 184.288 299.921 147.3 314.393C97.8344 333.712 40.8063 308.756 19.0126 270.187C17.4313 267.402 -0.890562 233.887 11.9657 203.74C14.5782 197.656 21.6251 181.19 36.4407 176.309C43.3501 174.04 46.5469 176.309 50.2594 173.284C59.3001 165.859 49.6751 147.984 51.0157 123.749C52.7688 92.6056 72.5688 63.7306 91.6813 57.4743C97.4907 55.5493 104.538 53.2462 112.788 55.2399C119.009 56.7524 121.416 59.6399 128.428 59.9149C135.2 60.1899 136.919 57.6462 141.8 58.2306C145.65 58.7118 151.219 61.1524 157.303 70.8462Z" fill="#0E538C"/>
<path d="M125.714 157.131C125.714 157.131 173.839 164.247 176.382 181.262C177.826 190.99 173.22 247.125 164.351 267.406C155.482 287.687 166.895 359.875 173.839 371.906H50.9824C50.9824 371.906 85.1855 295.903 79.4793 268.678C73.773 241.453 56.0356 190.784 82.0231 173.047C108.011 155.309 125.714 157.131 125.714 157.131Z" fill="#FFBE55"/>
<path d="M101.65 135.745L102.441 160.977C102.716 169.502 109.694 176.308 118.254 176.308C127.054 176.308 134.169 169.089 134.066 160.289L133.654 130.383L101.65 135.745Z" fill="#FCD2B1"/>
<path d="M90.2377 88.243C90.2377 88.243 75.0095 147.299 112.41 147.471C128.256 147.54 137.125 140.493 138.053 130.696C138.053 130.696 152.319 126.262 150.394 112.959C148.469 99.6555 141.525 109.487 141.835 112.649C142.144 115.812 137.71 117.393 138.019 113.921C138.328 110.449 139.738 77.1742 116.878 75.9023C116.913 75.9023 101.65 94.568 90.2377 88.243Z" fill="#FFE3CA"/>
<path d="M162.425 167.062C162.425 167.062 188.928 180.744 218.181 247.431C243.103 304.287 175.006 371.903 175.006 371.903H151.734C151.734 371.903 191.884 292.772 193.775 283.903C195.666 275.034 155.55 221.787 162.425 167.062Z" fill="#FFBE55"/>
<path d="M15.9531 58.5742L19.5625 40.3555L36.0969 43.4148L30.8719 63.8336L15.9531 58.5742Z" fill="#FFE3CA"/>
<path d="M13.6149 35.6793C12.9274 23.8887 23.2055 7.97306 26.8149 4.91368C30.4243 1.85431 42.3868 -0.105067 42.1805 6.83868C41.9743 13.7824 41.9399 21.5168 40.2212 26.3981C39.2243 29.2856 36.2337 35.7137 39.6024 33.9949C42.9712 32.2762 46.0649 23.5106 49.0212 26.1918C51.4618 28.4262 46.443 42.8637 39.6024 47.8137C35.8212 50.5637 35.6149 51.7668 30.4243 52.0418C25.2337 52.3168 14.7149 54.3793 13.6149 35.6793Z" fill="#FFE3CA"/>
<path d="M15.9883 56.5117C15.9883 56.5117 -4.77418 119.28 -0.339804 143.343C4.09457 167.405 69.0977 219.518 69.0977 219.518L85.5977 170.637C85.5977 170.637 44.9321 156.784 32.9008 143.721C20.8696 130.659 32.5914 58.4711 32.5914 58.4711L15.9883 56.5117Z" fill="#FFBE55"/>
</g>
<defs>
<filter id="filter0_d_5946_62583" x="0" y="0" width="531" height="379" filterUnits="userSpaceOnUse" color-interpolation-filters="sRGB">
<feFlood flood-opacity="0" result="BackgroundImageFix"/>
<feColorMatrix in="SourceAlpha" type="matrix" values="0 0 0 0 0 0 0 0 0 0 0 0 0 0 0 0 0 0 127 0" result="hardAlpha"/>
<feOffset dy="4"/>
<feGaussianBlur stdDeviation="2"/>
<feComposite in2="hardAlpha" operator="out"/>
<feColorMatrix type="matrix" values="0 0 0 0 0 0 0 0 0 0 0 0 0 0 0 0 0 0 0.25 0"/>
<feBlend mode="normal" in2="BackgroundImageFix" result="effect1_dropShadow_5946_62583"/>
<feBlend mode="normal" in="SourceGraphic" in2="effect1_dropShadow_5946_62583" result="shape"/>
</filter>
<clipPath id="clip0_5946_62583">
<rect width="523" height="371" fill="white" transform="translate(4)"/>
</clipPath>
</defs>
</svg>
