<svg width="32" height="32" viewBox="0 0 32 32" fill="none" xmlns="http://www.w3.org/2000/svg">
<path d="M11.4297 16.0002C11.4297 11.1317 11.4297 6.2631 11.4297 1.3936C11.4297 0.411118 11.8379 0 12.8128 0C14.9552 0 17.0976 0 19.24 0C20.1357 0 20.5706 0.436872 20.5706 1.33828C20.5706 11.1116 20.5706 20.885 20.5706 30.6583C20.5706 31.5578 20.1337 31.9985 19.2409 31.9985C17.0747 31.9985 14.9084 31.9994 12.7422 31.9985C11.8732 31.9985 11.4297 31.5521 11.4297 30.6774C11.4297 25.785 11.4297 20.8926 11.4297 16.0002Z" fill="#194AF5"/>
<path d="M22.8555 20.5802C22.8555 17.2235 22.8555 13.8669 22.8555 10.5093C22.8555 9.55824 23.2733 9.14331 24.23 9.14331C26.3838 9.14331 28.5386 9.14331 30.6925 9.14331C31.5443 9.14331 31.9954 9.59067 31.9964 10.4368C31.9964 17.1978 31.9974 23.9598 31.9964 30.7208C31.9964 31.5411 31.5357 31.9971 30.7115 31.998C28.5215 31.9999 26.3314 31.9999 24.1422 31.998C23.3143 31.998 22.8574 31.544 22.8574 30.7217C22.8564 27.3412 22.8574 23.9607 22.8574 20.5792L22.8555 20.5802Z" fill="#194AF5"/>
<path d="M0.00127183 25.1416C0.00127183 23.2844 0.000317956 21.4272 0.00127183 19.571C0.00127183 18.7373 0.44959 18.2861 1.27659 18.2861C3.47812 18.2842 5.68061 18.2842 7.88214 18.2861C8.68053 18.2861 9.14029 18.7487 9.14029 19.5528C9.1422 23.2786 9.1422 27.0045 9.14029 30.7303C9.14029 31.5325 8.67862 31.997 7.88214 31.998C5.66821 31.9999 3.45428 32.0008 1.2413 31.998C0.467714 31.997 0.00222569 31.5268 0.00127183 30.7484C-0.00158978 28.8798 0.00127183 27.0102 0.00127183 25.1416Z" fill="#BDCBFF"/>
</svg>
