<svg width="36" height="28" viewBox="0 0 36 28" fill="none" xmlns="http://www.w3.org/2000/svg">
<path d="M17.8292 0.5C22.1888 0.5 25.2327 3.50426 25.2327 7.80964V20.1904C25.2327 24.4957 22.1888 27.5 17.8292 27.5H7.40347C3.04383 27.5 0 24.4957 0 20.1904V7.80964C0 3.50426 3.04383 0.5 7.40347 0.5H17.8292ZM32.3244 4.78217C33.1146 4.38014 34.0416 4.42217 34.7958 4.8973C35.55 5.3706 36 6.19293 36 7.09202V20.9091C36 21.81 35.55 22.6305 34.7958 23.1038C34.3836 23.3615 33.9228 23.493 33.4584 23.493C33.0714 23.493 32.6844 23.4017 32.3226 23.2171L29.6567 21.8721C28.6703 21.3714 28.0583 20.3663 28.0583 19.2498V8.74948C28.0583 7.63111 28.6703 6.62603 29.6567 6.12897L32.3244 4.78217Z" fill="#B7B7B7"/>
</svg>
